<svg xmlns="http://www.w3.org/2000/svg" width="1000" height="320" viewBox="0 0 1000 320" role="img">
<defs><linearGradient id="bg" x1="0" y1="0" x2="1" y2="1"><stop offset="0%" stop-color="#0b1220"/><stop offset="100%" stop-color="#111827"/></linearGradient><linearGradient id="accent" x1="0" y1="0" x2="1" y2="0"><stop offset="0%" stop-color="#00e5ff"/><stop offset="100%" stop-color="#8b5cf6"/></linearGradient></defs>
<rect x="1" y="1" width="998" height="318" rx="20" fill="url(#bg)" stroke="#263247"/><rect width="1000" height="5" rx="3" fill="url(#accent)"/>
<text x="44" y="48" fill="#f8fafc" font-family="Arial" font-size="25" font-weight="700">📈 Dagg12 Contribution Activity</text>
<text x="44" y="73" fill="#94a3b8" font-family="Arial" font-size="14">Monthly contribution trend across the last 12 months</text><line x1="58" y1="235" x2="955" y2="235" stroke="#263247"/><rect x="70" y="231" width="42" height="4" rx="6" fill="#00e5ff" opacity="0.82"/><text x="91" y="258" text-anchor="middle" fill="#94a3b8" font-family="Arial" font-size="12">Sep</text><text x="91" y="224" text-anchor="middle" fill="#e2e8f0" font-family="Arial" font-size="11">1</text><rect x="145" y="231" width="42" height="4" rx="6" fill="#00e5ff" opacity="0.82"/><text x="166" y="258" text-anchor="middle" fill="#94a3b8" font-family="Arial" font-size="12">Oct</text><text x="166" y="224" text-anchor="middle" fill="#e2e8f0" font-family="Arial" font-size="11">1</text><rect x="220" y="230" width="42" height="5" rx="6" fill="#00e5ff" opacity="0.82"/><text x="241" y="258" text-anchor="middle" fill="#94a3b8" font-family="Arial" font-size="12">Nov</text><text x="241" y="223" text-anchor="middle" fill="#e2e8f0" font-family="Arial" font-size="11">3</text><rect x="295" y="231" width="42" height="4" rx="6" fill="#00e5ff" opacity="0.82"/><text x="316" y="258" text-anchor="middle" fill="#94a3b8" font-family="Arial" font-size="12">Dec</text><text x="316" y="224" text-anchor="middle" fill="#e2e8f0" font-family="Arial" font-size="11">1</text><rect x="370" y="231" width="42" height="4" rx="6" fill="#00e5ff" opacity="0.82"/><text x="391" y="258" text-anchor="middle" fill="#94a3b8" font-family="Arial" font-size="12">Jan</text><text x="391" y="224" text-anchor="middle" fill="#e2e8f0" font-family="Arial" font-size="11">0</text><rect x="445" y="231" width="42" height="4" rx="6" fill="#00e5ff" opacity="0.82"/><text x="466" y="258" text-anchor="middle" fill="#94a3b8" font-family="Arial" font-size="12">Feb</text><text x="466" y="224" text-anchor="middle" fill="#e2e8f0" font-family="Arial" font-size="11">0</text><rect x="520" y="223" width="42" height="12" rx="6" fill="#00e5ff" opacity="0.82"/><text x="541" y="258" text-anchor="middle" fill="#94a3b8" font-family="Arial" font-size="12">Mar</text><text x="541" y="216" text-anchor="middle" fill="#e2e8f0" font-family="Arial" font-size="11">7</text><rect x="595" y="231" width="42" height="4" rx="6" fill="#00e5ff" opacity="0.82"/><text x="616" y="258" text-anchor="middle" fill="#94a3b8" font-family="Arial" font-size="12">Apr</text><text x="616" y="224" text-anchor="middle" fill="#e2e8f0" font-family="Arial" font-size="11">0</text><rect x="670" y="231" width="42" height="4" rx="6" fill="#00e5ff" opacity="0.82"/><text x="691" y="258" text-anchor="middle" fill="#94a3b8" font-family="Arial" font-size="12">May</text><text x="691" y="224" text-anchor="middle" fill="#e2e8f0" font-family="Arial" font-size="11">1</text><rect x="745" y="230" width="42" height="5" rx="6" fill="#00e5ff" opacity="0.82"/><text x="766" y="258" text-anchor="middle" fill="#94a3b8" font-family="Arial" font-size="12">Jun</text><text x="766" y="223" text-anchor="middle" fill="#e2e8f0" font-family="Arial" font-size="11">3</text><rect x="820" y="145" width="42" height="90" rx="6" fill="#00e5ff" opacity="0.82"/><text x="841" y="258" text-anchor="middle" fill="#94a3b8" font-family="Arial" font-size="12">Jul</text><text x="841" y="138" text-anchor="middle" fill="#e2e8f0" font-family="Arial" font-size="11">52</text><rect x="895" y="90" width="42" height="145" rx="6" fill="#00e5ff" opacity="0.82"/><text x="916" y="258" text-anchor="middle" fill="#94a3b8" font-family="Arial" font-size="12">Aug</text><text x="916" y="83" text-anchor="middle" fill="#e2e8f0" font-family="Arial" font-size="11">83</text><text x="58" y="125" fill="#64748b" font-family="Arial" font-size="12">COMMITS / CONTRIBUTIONS</text></svg>