<svg xmlns="http://www.w3.org/2000/svg" width="1200" height="330" viewBox="0 0 1200 330" role="img"><title>Dagg12 animated learning console</title><defs><linearGradient id="g"><stop stop-color="#00e5ff"/><stop offset="1" stop-color="#00ff9d"/></linearGradient><filter id="glow"><feGaussianBlur stdDeviation="3" result="b"/><feMerge><feMergeNode in="b"/><feMergeNode in="SourceGraphic"/></feMerge></filter></defs><rect width="1200" height="330" rx="26" fill="#03070d" stroke="#1f3b54"/><circle cx="1120" cy="60" r="90" fill="#00e5ff" opacity=".06"><animate attributeName="r" values="70;110;70" dur="6s" repeatCount="indefinite"/></circle><circle cx="80" cy="270" r="100" fill="#00ff9d" opacity=".04"><animate attributeName="r" values="80;120;80" dur="7s" repeatCount="indefinite"/></circle><text x="45" y="45" fill="#7dd3fc" font-family="monospace" font-size="15">dagg12@github:~$ ./learning --live</text><g font-family="monospace" font-size="16"><text x="55" y="88" fill="#00ff9d">[01]</text><text x="105" y="88" fill="#fff">🐉 Kali Linux</text><text x="360" y="88" fill="#647d99">ETHICAL SECURITY</text><text x="55" y="125" fill="#00ff9d">[02]</text><text x="105" y="125" fill="#fff">⚛ React</text><text x="360" y="125" fill="#647d99">FRONTEND</text><text x="55" y="162" fill="#00ff9d">[03]</text><text x="105" y="162" fill="#fff">🌊 Tailwind CSS</text><text x="360" y="162" fill="#647d99">UI ENGINEERING</text><text x="55" y="199" fill="#00ff9d">[04]</text><text x="105" y="199" fill="#fff">🤖 Artificial Intelligence</text><text x="360" y="199" fill="#647d99">EXPLORING</text><text x="55" y="236" fill="#00ff9d">[05]</text><text x="105" y="236" fill="#fff">🌐 Networking</text><text x="360" y="236" fill="#647d99">INFRASTRUCTURE</text><text x="55" y="273" fill="#00ff9d">[06]</text><text x="105" y="273" fill="#fff">☁ Cloud Technologies</text><text x="360" y="273" fill="#647d99">EXPLORING</text></g><g stroke="#172a3b" stroke-width="8" stroke-linecap="round"><path d="M610 88H1090M610 125H1090M610 162H1090M610 199H1090M610 236H1090M610 273H1090"/></g><g stroke="url(#g)" stroke-width="8" stroke-linecap="round"><path d="M610 88H850"><animate attributeName="x2" values="760;930;850;980;850" dur="5s" repeatCount="indefinite"/></path><path d="M610 125H900"><animate attributeName="x2" values="820;960;900;1020;900" dur="4s" repeatCount="indefinite"/></path><path d="M610 162H820"><animate attributeName="x2" values="720;900;820;950;820" dur="6s" repeatCount="indefinite"/></path><path d="M610 199H780"><animate attributeName="x2" values="700;920;780;880;780" dur="4.5s" repeatCount="indefinite"/></path><path d="M610 236H940"><animate attributeName="x2" values="800;1020;940;1060;940" dur="5.5s" repeatCount="indefinite"/></path><path d="M610 273H740"><animate attributeName="x2" values="680;860;740;900;740" dur="6.5s" repeatCount="indefinite"/></path></g><text x="1085" y="305" fill="#00ff9d" font-family="monospace" font-size="13" text-anchor="end"><animate attributeName="opacity" values="1;.3;1" dur="1.2s" repeatCount="indefinite"/>● ALWAYS LEARNING</text></svg>