<svg xmlns="http://www.w3.org/2000/svg" width="1000" height="250" viewBox="0 0 1000 250">
<defs>
 <linearGradient id="g" x1="0" y1="0" x2="1" y2="1"><stop stop-color="#00e5ff"><animate attributeName="stop-color" values="#00e5ff;#8b5cf6;#00ff9d;#00e5ff" dur="6s" repeatCount="indefinite"/></stop><stop offset="1" stop-color="#8b5cf6"><animate attributeName="stop-color" values="#8b5cf6;#00ff9d;#00e5ff;#8b5cf6" dur="6s" repeatCount="indefinite"/></stop></linearGradient>
 <filter id="glow"><feGaussianBlur stdDeviation="7" result="b"/><feMerge><feMergeNode in="b"/><feMergeNode in="SourceGraphic"/></feMerge></filter>
 <pattern id="grid" width="32" height="32" patternUnits="userSpaceOnUse"><path d="M32 0H0V32" fill="none" stroke="#ffffff" stroke-opacity=".05"/></pattern>
</defs>
<rect x="4" y="4" width="992" height="242" rx="24" fill="#080d18" stroke="#24334d" stroke-width="2"/>
<rect x="4" y="4" width="992" height="242" rx="24" fill="url(#grid)"/>
<rect x="4" y="4" width="992" height="5" rx="3" fill="url(#g)" filter="url(#glow)"/>
<circle cx="90" cy="75" r="5" fill="#00e5ff"><animate attributeName="r" values="5;10;5" dur="2s" repeatCount="indefinite"/></circle>
<circle cx="910" cy="75" r="5" fill="#8b5cf6"><animate attributeName="r" values="5;10;5" dur="2.4s" repeatCount="indefinite"/></circle>
<text x="500" y="92" text-anchor="middle" fill="#f8fafc" font-family="Arial,Helvetica,sans-serif" font-size="34" font-weight="700">LET'S BUILD SOMETHING</text>
<text x="500" y="125" text-anchor="middle" fill="#94a3b8" font-family="Arial,Helvetica,sans-serif" font-size="14">Ideas → Code → Systems → Impact</text>
<g font-family="Arial,Helvetica,sans-serif" font-size="13" font-weight="700" text-anchor="middle">
 <g><rect x="70" y="160" width="150" height="42" rx="21" fill="#101b2d" stroke="#00e5ff"/><text x="145" y="186" fill="#00e5ff">SOFTWARE</text></g>
 <g><rect x="240" y="160" width="150" height="42" rx="21" fill="#101b2d" stroke="#8b5cf6"/><text x="315" y="186" fill="#c4b5fd">AI + AUTOMATION</text></g>
 <g><rect x="410" y="160" width="150" height="42" rx="21" fill="#101b2d" stroke="#00ff9d"/><text x="485" y="186" fill="#00ff9d">CYBERSECURITY</text></g>
 <g><rect x="580" y="160" width="150" height="42" rx="21" fill="#101b2d" stroke="#00e5ff"/><text x="655" y="186" fill="#00e5ff">NETWORKING</text></g>
 <g><rect x="750" y="160" width="180" height="42" rx="21" fill="#101b2d" stroke="#8b5cf6"/><text x="840" y="186" fill="#c4b5fd">CREATIVE TECH</text></g>
</g>
<text x="500" y="224" text-anchor="middle" fill="#64748b" font-family="monospace" font-size="12">BUILD • LEARN • SHIP • REPEAT</text>
</svg>
